<svg xmlns="http://www.w3.org/2000/svg" width="32" height="28" viewBox="0 0 32 28" id="speaker"><g fill="#000100" fill-rule="nonzero"><path d="M16 6.33v15.34l-4.279-2.96-.513-.355A2 2 0 0010.07 18H5a1 1 0 01-1-1v-6a1 1 0 011-1h5.07a2 2 0 001.138-.355l.513-.355L16 6.33zM18.5 0c-.239.002-.471.072-.67.203l-8.127 5.62a1 1 0 01-.57.177H2a2 2 0 00-2 2v12a2 2 0 002 2h7.134a1 1 0 01.569.178l8.126 5.62c.2.13.432.2.67.202A1.732 1.732 0 0020 26.101V1.9A1.732 1.732 0 0018.5 0zM24.332 21.048l-.085-.15a1.969 1.969 0 01.573-2.551c2.23-1.604 3.403-3.187 3.339-4.54-.077-1.635-1.844-3.184-3.261-4.13a1.943 1.943 0 01-.675-2.389l.076-.171a1.803 1.803 0 012.66-.816c1.994 1.316 4.86 3.803 5.033 7.297.14 2.864-1.557 5.574-5.051 8.075a1.793 1.793 0 01-2.61-.625z"></path></g></svg>